<?xml version="1.0" encoding="UTF-8"?><svg xmlns="http://www.w3.org/2000/svg" xmlns:xlink="http://www.w3.org/1999/xlink" version="1.1" id="Layer_1" x="0px" y="0px" viewBox="0 0 16 16" xml:space="preserve"><path id="Simplenote" d="M2.25 13.563C1.062 12.27.122 10.593 0 8.344v-.656c.048-.95.29-1.811.594-2.594C.987 4.079 1.595 3.108 2.313 2.5c0 .486.012.95.062 1.25.152.912.66 1.91 1.282 2.531.503.504 1.178.85 1.875 1.219 1.39.738 2.712 1.389 4.094 2.125.889.474 1.804 1.059 2.062 2 .366 1.33-.41 2.564-1.031 3.219A3.834 3.834 0 0 1 8.438 16H7.375c-2.194-.245-3.932-1.14-5.125-2.437zm5.281-8.031c1.281.671 2.604 1.353 3.907 2.031.671.35 1.282.711 1.75 1.219.852.924 1.384 2.128 1.281 3.875.211-.204.402-.489.562-.781.465-.85.841-1.933.938-3.188-.005-.037.006-.056.031-.063v-1.25C15.45 2.979 12.458.339 8.25 0h-.406C7.022.138 6.22.373 5.75.907c-.33.374-.59 1.04-.625 1.468-.148 1.839 1.17 2.508 2.406 3.157z" fill="#2196F3"/><metadata><rdf:RDF xmlns:rdf="http://www.w3.org/1999/02/22-rdf-syntax-ns#" xmlns:rdfs="http://www.w3.org/2000/01/rdf-schema#" xmlns:dc="http://purl.org/dc/elements/1.1/"><rdf:Description about="https://iconscout.com/legal#licenses" dc:title="simple,note,logo,color,e" dc:description="simple,note,logo,color,e" dc:publisher="Iconscout" dc:date="2018-02-17" dc:format="image/svg+xml" dc:language="en"><dc:creator><rdf:Bag><rdf:li>Pixel Icons</rdf:li></rdf:Bag></dc:creator></rdf:Description></rdf:RDF></metadata></svg>